<svg width="21" height="21" viewBox="0 0 21 21" fill="none" xmlns="http://www.w3.org/2000/svg">
<path d="M19.3571 17.189C18.8831 16.0664 18.1953 15.0466 17.3319 14.1865C16.4712 13.324 15.4516 12.6363 14.3294 12.1614C14.3194 12.1564 14.3093 12.1539 14.2993 12.1488C15.8646 11.0182 16.8822 9.17648 16.8822 7.09859C16.8822 3.65638 14.0932 0.867432 10.651 0.867432C7.20882 0.867432 4.41988 3.65638 4.41988 7.09859C4.41988 9.17648 5.43747 11.0182 7.00279 12.1514C6.99274 12.1564 6.98269 12.1589 6.97264 12.1639C5.84701 12.6388 4.83696 13.3197 3.97013 14.189C3.10759 15.0498 2.41989 16.0694 1.945 17.1916C1.47848 18.2902 1.22687 19.468 1.2038 20.6614C1.20313 20.6882 1.20783 20.7149 1.21763 20.7399C1.22743 20.7648 1.24213 20.7876 1.26086 20.8068C1.2796 20.826 1.30198 20.8413 1.3267 20.8517C1.35142 20.8621 1.37798 20.8674 1.4048 20.8674H2.91234C3.02289 20.8674 3.11083 20.7795 3.11335 20.6715C3.1636 18.7318 3.94249 16.9152 5.31938 15.5383C6.744 14.1137 8.63596 13.3297 10.651 13.3297C12.6661 13.3297 14.5581 14.1137 15.9827 15.5383C17.3596 16.9152 18.1385 18.7318 18.1887 20.6715C18.1912 20.782 18.2792 20.8674 18.3897 20.8674H19.8973C19.9241 20.8674 19.9506 20.8621 19.9754 20.8517C20.0001 20.8413 20.0225 20.826 20.0412 20.8068C20.0599 20.7876 20.0746 20.7648 20.0844 20.7399C20.0942 20.7149 20.0989 20.6882 20.0983 20.6614C20.0731 19.4604 19.8244 18.2921 19.3571 17.189V17.189ZM10.651 11.4202C9.49777 11.4202 8.41234 10.9704 7.59576 10.1539C6.77918 9.33728 6.32943 8.25185 6.32943 7.09859C6.32943 5.94532 6.77918 4.85989 7.59576 4.04331C8.41234 3.22673 9.49777 2.77698 10.651 2.77698C11.8043 2.77698 12.8897 3.22673 13.7063 4.04331C14.5229 4.85989 14.9726 5.94532 14.9726 7.09859C14.9726 8.25185 14.5229 9.33728 13.7063 10.1539C12.8897 10.9704 11.8043 11.4202 10.651 11.4202Z" fill="#787878"/>
</svg>
