<svg width="28" height="29" viewBox="0 0 28 29" fill="none" xmlns="http://www.w3.org/2000/svg">
<g filter="url(#filter0_d_69_1208)">
<path d="M5.66669 3.47323C5.66669 3.00652 5.66669 2.77316 5.75751 2.5949C5.83741 2.4381 5.96489 2.31061 6.12169 2.23072C6.29995 2.13989 6.53331 2.13989 7.00002 2.13989H11C11.4667 2.13989 11.7001 2.13989 11.8783 2.23072C12.0351 2.31061 12.1626 2.4381 12.2425 2.5949C12.3334 2.77316 12.3334 3.00652 12.3334 3.47323V7.47323C12.3334 7.93994 12.3334 8.17329 12.2425 8.35155C12.1626 8.50835 12.0351 8.63584 11.8783 8.71573C11.7001 8.80656 11.4667 8.80656 11 8.80656H7.00002C6.53331 8.80656 6.29995 8.80656 6.12169 8.71573C5.96489 8.63584 5.83741 8.50835 5.75751 8.35155C5.66669 8.17329 5.66669 7.93994 5.66669 7.47323V3.47323Z" stroke="white" stroke-width="1.5"/>
<path d="M5.66669 13.4732C5.66669 13.0065 5.66669 12.7732 5.75751 12.5949C5.83741 12.4381 5.96489 12.3106 6.12169 12.2307C6.29995 12.1399 6.53331 12.1399 7.00002 12.1399H11C11.4667 12.1399 11.7001 12.1399 11.8783 12.2307C12.0351 12.3106 12.1626 12.4381 12.2425 12.5949C12.3334 12.7732 12.3334 13.0065 12.3334 13.4732V17.4732C12.3334 17.9399 12.3334 18.1733 12.2425 18.3515C12.1626 18.5084 12.0351 18.6358 11.8783 18.7157C11.7001 18.8066 11.4667 18.8066 11 18.8066H7.00002C6.53331 18.8066 6.29995 18.8066 6.12169 18.7157C5.96489 18.6358 5.83741 18.5084 5.75751 18.3515C5.66669 18.1733 5.66669 17.9399 5.66669 17.4732V13.4732Z" stroke="white" stroke-width="1.5"/>
<path d="M15.6667 3.47323C15.6667 3.00652 15.6667 2.77316 15.7575 2.5949C15.8374 2.4381 15.9649 2.31061 16.1217 2.23072C16.3 2.13989 16.5333 2.13989 17 2.13989H21C21.4667 2.13989 21.7001 2.13989 21.8783 2.23072C22.0351 2.31061 22.1626 2.4381 22.2425 2.5949C22.3334 2.77316 22.3334 3.00652 22.3334 3.47323V7.47323C22.3334 7.93994 22.3334 8.17329 22.2425 8.35155C22.1626 8.50835 22.0351 8.63584 21.8783 8.71573C21.7001 8.80656 21.4667 8.80656 21 8.80656H17C16.5333 8.80656 16.3 8.80656 16.1217 8.71573C15.9649 8.63584 15.8374 8.50835 15.7575 8.35155C15.6667 8.17329 15.6667 7.93994 15.6667 7.47323V3.47323Z" stroke="white" stroke-width="1.5"/>
<path d="M15.6667 13.4732C15.6667 13.0065 15.6667 12.7732 15.7575 12.5949C15.8374 12.4381 15.9649 12.3106 16.1217 12.2307C16.3 12.1399 16.5333 12.1399 17 12.1399H21C21.4667 12.1399 21.7001 12.1399 21.8783 12.2307C22.0351 12.3106 22.1626 12.4381 22.2425 12.5949C22.3334 12.7732 22.3334 13.0065 22.3334 13.4732V17.4732C22.3334 17.9399 22.3334 18.1733 22.2425 18.3515C22.1626 18.5084 22.0351 18.6358 21.8783 18.7157C21.7001 18.8066 21.4667 18.8066 21 18.8066H17C16.5333 18.8066 16.3 18.8066 16.1217 18.7157C15.9649 18.6358 15.8374 18.5084 15.7575 18.3515C15.6667 18.1733 15.6667 17.9399 15.6667 17.4732V13.4732Z" stroke="white" stroke-width="1.5"/>
</g>
<defs>
<filter id="filter0_d_69_1208" x="0" y="0.473145" width="28" height="28" filterUnits="userSpaceOnUse" color-interpolation-filters="sRGB">
<feFlood flood-opacity="0" result="BackgroundImageFix"/>
<feColorMatrix in="SourceAlpha" type="matrix" values="0 0 0 0 0 0 0 0 0 0 0 0 0 0 0 0 0 0 127 0" result="hardAlpha"/>
<feOffset dy="4"/>
<feGaussianBlur stdDeviation="2"/>
<feComposite in2="hardAlpha" operator="out"/>
<feColorMatrix type="matrix" values="0 0 0 0 0 0 0 0 0 0 0 0 0 0 0 0 0 0 0.25 0"/>
<feBlend mode="normal" in2="BackgroundImageFix" result="effect1_dropShadow_69_1208"/>
<feBlend mode="normal" in="SourceGraphic" in2="effect1_dropShadow_69_1208" result="shape"/>
</filter>
</defs>
</svg>
