<svg width="21" height="21" viewBox="0 0 21 21" fill="none" xmlns="http://www.w3.org/2000/svg">
<path d="M10.651 0.64624C7.91363 0.64624 5.68662 2.87325 5.68662 5.61059V8.5892H4.69375C3.59861 8.5892 2.70801 9.47981 2.70801 10.5749V18.5179C2.70801 19.613 3.59861 20.5036 4.69375 20.5036H16.6082C17.7033 20.5036 18.5939 19.613 18.5939 18.5179V10.5749C18.5939 9.47981 17.7033 8.5892 16.6082 8.5892H15.6153V5.61059C15.6153 2.87325 13.3883 0.64624 10.651 0.64624ZM16.6082 10.5749L16.6102 18.5179H4.69375V10.5749H16.6082ZM7.67236 8.5892V5.61059C7.67236 3.96838 9.00876 2.63198 10.651 2.63198C12.2932 2.63198 13.6296 3.96838 13.6296 5.61059V8.5892H7.67236Z" fill="#787878"/>
</svg>
