<svg width="407" height="157" viewBox="0 0 407 157" fill="none" xmlns="http://www.w3.org/2000/svg">
<path d="M16.6406 112.75L65 11.5926L113.359 112.75H16.6406Z" stroke="white" stroke-width="10"/>
<path d="M79.8693 48.9091H86.3182L94.9545 69.9886H95.2955L103.932 48.9091H110.381V78H105.324V58.0142H105.054L97.0142 77.9148H93.2358L85.196 57.9716H84.9261V78H79.8693V48.9091ZM116.119 78V48.9091H127.256C129.358 48.9091 131.105 49.2405 132.497 49.9034C133.899 50.5568 134.945 51.4517 135.636 52.5881C136.337 53.7244 136.688 55.0123 136.688 56.4517C136.688 57.6354 136.46 58.6487 136.006 59.4915C135.551 60.3248 134.94 61.0019 134.173 61.5227C133.406 62.0436 132.549 62.4176 131.602 62.6449V62.929C132.634 62.9858 133.624 63.303 134.571 63.8807C135.527 64.4489 136.309 65.2538 136.915 66.2955C137.521 67.3371 137.824 68.5966 137.824 70.0739C137.824 71.5795 137.459 72.9337 136.73 74.1364C136.001 75.3295 134.902 76.2718 133.435 76.9631C131.967 77.6544 130.12 78 127.895 78H116.119ZM121.389 73.5966H127.057C128.97 73.5966 130.348 73.232 131.19 72.5028C132.043 71.7642 132.469 70.8172 132.469 69.6619C132.469 68.8002 132.256 68.0237 131.83 67.3324C131.403 66.6316 130.797 66.0824 130.011 65.6847C129.225 65.2775 128.288 65.0739 127.199 65.0739H121.389V73.5966ZM121.389 61.2812H126.602C127.511 61.2812 128.33 61.1155 129.06 60.7841C129.789 60.4432 130.362 59.965 130.778 59.3494C131.205 58.7244 131.418 57.9858 131.418 57.1335C131.418 56.0066 131.02 55.0786 130.224 54.3494C129.438 53.6203 128.269 53.2557 126.716 53.2557H121.389V61.2812ZM147.678 48.9091V78H142.408V48.9091H147.678ZM153.385 78V48.9091H172.305V53.3267H158.655V61.2244H171.325V65.642H158.655V73.5824H172.419V78H153.385ZM201.588 48.9091V78H196.901L183.193 58.1847H182.952V78H177.682V48.9091H182.398L196.091 68.7386H196.347V48.9091H201.588ZM206.052 53.3267V48.9091H229.262V53.3267H220.271V78H215.043V53.3267H206.052Z" fill="white"/>
<path d="M178.438 91.1307C178.347 90.3239 177.972 89.6989 177.312 89.2557C176.653 88.8068 175.824 88.5824 174.824 88.5824C174.108 88.5824 173.489 88.696 172.966 88.9233C172.443 89.1449 172.037 89.4517 171.747 89.8438C171.463 90.2301 171.321 90.6705 171.321 91.1648C171.321 91.5795 171.418 91.9375 171.611 92.2386C171.81 92.5398 172.068 92.7926 172.386 92.9972C172.71 93.196 173.057 93.3636 173.426 93.5C173.795 93.6307 174.151 93.7386 174.491 93.8239L176.196 94.267C176.753 94.4034 177.324 94.5881 177.909 94.821C178.494 95.054 179.037 95.3608 179.537 95.7415C180.037 96.1222 180.44 96.5938 180.747 97.1562C181.06 97.7188 181.216 98.392 181.216 99.1761C181.216 100.165 180.96 101.043 180.449 101.81C179.943 102.577 179.207 103.182 178.241 103.625C177.281 104.068 176.119 104.29 174.756 104.29C173.449 104.29 172.318 104.082 171.364 103.668C170.409 103.253 169.662 102.665 169.122 101.903C168.582 101.136 168.284 100.227 168.227 99.1761H170.869C170.92 99.8068 171.125 100.332 171.483 100.753C171.847 101.168 172.31 101.477 172.872 101.682C173.44 101.881 174.062 101.98 174.739 101.98C175.483 101.98 176.145 101.864 176.724 101.631C177.31 101.392 177.77 101.062 178.105 100.642C178.44 100.216 178.608 99.7187 178.608 99.1506C178.608 98.6335 178.46 98.2102 178.165 97.8807C177.875 97.5511 177.48 97.2784 176.98 97.0625C176.486 96.8466 175.926 96.6562 175.301 96.4915L173.239 95.929C171.841 95.5483 170.733 94.9886 169.915 94.25C169.102 93.5114 168.696 92.5341 168.696 91.3182C168.696 90.3125 168.969 89.4347 169.514 88.6847C170.06 87.9347 170.798 87.3523 171.73 86.9375C172.662 86.517 173.713 86.3068 174.884 86.3068C176.065 86.3068 177.108 86.5142 178.011 86.929C178.92 87.3438 179.636 87.9148 180.159 88.642C180.682 89.3636 180.955 90.1932 180.977 91.1307H178.438ZM183.502 88.8125V86.5455H197.011V88.8125H191.565V104H188.94V88.8125H183.502ZM214.408 95.2727C214.408 97.1364 214.067 98.7386 213.385 100.08C212.703 101.415 211.768 102.443 210.581 103.165C209.399 103.881 208.055 104.239 206.55 104.239C205.038 104.239 203.689 103.881 202.501 103.165C201.32 102.443 200.388 101.412 199.706 100.071C199.024 98.7301 198.683 97.1307 198.683 95.2727C198.683 93.4091 199.024 91.8097 199.706 90.4744C200.388 89.1335 201.32 88.1051 202.501 87.3892C203.689 86.6676 205.038 86.3068 206.55 86.3068C208.055 86.3068 209.399 86.6676 210.581 87.3892C211.768 88.1051 212.703 89.1335 213.385 90.4744C214.067 91.8097 214.408 93.4091 214.408 95.2727ZM211.8 95.2727C211.8 93.8523 211.57 92.6562 211.109 91.6847C210.655 90.7074 210.03 89.9688 209.234 89.4688C208.445 88.9631 207.55 88.7102 206.55 88.7102C205.544 88.7102 204.646 88.9631 203.857 89.4688C203.067 89.9688 202.442 90.7074 201.982 91.6847C201.527 92.6562 201.3 93.8523 201.3 95.2727C201.3 96.6932 201.527 97.892 201.982 98.8693C202.442 99.8409 203.067 100.58 203.857 101.085C204.646 101.585 205.544 101.835 206.55 101.835C207.55 101.835 208.445 101.585 209.234 101.085C210.03 100.58 210.655 99.8409 211.109 98.8693C211.57 97.892 211.8 96.6932 211.8 95.2727ZM217.691 104V86.5455H223.913C225.265 86.5455 226.387 86.7784 227.279 87.2443C228.177 87.7102 228.847 88.3551 229.29 89.179C229.734 89.9972 229.955 90.9432 229.955 92.017C229.955 93.0852 229.731 94.0256 229.282 94.8381C228.839 95.6449 228.168 96.2727 227.271 96.7216C226.379 97.1705 225.256 97.3949 223.904 97.3949H219.191V95.1278H223.665C224.518 95.1278 225.211 95.0057 225.745 94.7614C226.285 94.517 226.68 94.1619 226.93 93.696C227.18 93.2301 227.305 92.6705 227.305 92.017C227.305 91.358 227.177 90.7869 226.921 90.304C226.671 89.821 226.276 89.4517 225.737 89.196C225.202 88.9347 224.501 88.804 223.631 88.804H220.325V104H217.691ZM226.308 96.125L230.62 104H227.62L223.393 96.125H226.308ZM233.16 104V86.5455H244.103V88.8125H235.793V94.1307H243.532V96.3892H235.793V101.733H244.205V104H233.16ZM247.169 104V102.244L256.348 88.8125H247.092V86.5455H259.57V88.3011L250.391 101.733H259.646V104H247.169Z" fill="#DB4444"/>
</svg>
