<svg width="373" height="70" viewBox="0 0 373 70" fill="none" xmlns="http://www.w3.org/2000/svg">
<path d="M35.0002 65C18.4317 65 5.00022 51.5685 5.00022 35C5.00022 18.4315 18.4317 5 35.0002 5C36.7805 5 37.8893 5.15607 38.5366 5.32161C38.4184 6.03575 38.1209 7.04424 37.5773 8.4691C37.1095 9.69543 36.5438 11.0198 35.8921 12.5455C35.7636 12.8464 35.6317 13.1551 35.4966 13.4724C34.6977 15.3488 33.8206 17.4465 33.015 19.6801C31.4085 24.1347 30.0002 29.3542 30.0002 35C30.0002 40.6458 31.4085 45.8652 33.015 50.3199C33.8206 52.5536 34.6977 54.6512 35.4966 56.5276C35.6317 56.8449 35.7636 57.1536 35.8921 57.4545C36.5438 58.9802 37.1095 60.3046 37.5773 61.5309C38.1209 62.9558 38.4184 63.9642 38.5366 64.6784C37.8893 64.8439 36.7805 65 35.0002 65ZM38.5885 4.70297C38.5886 4.70294 38.5888 4.70466 38.5891 4.70821C38.5886 4.70478 38.5885 4.703 38.5885 4.70297ZM38.5885 65.297C38.5885 65.297 38.5886 65.2952 38.5891 65.2918C38.5888 65.2953 38.5886 65.2971 38.5885 65.297Z" stroke="white" stroke-width="10"/>
<path d="M61.1339 52H54.543L64.5856 22.9091H72.5118L82.5402 52H75.9493L68.6623 29.5568H68.4351L61.1339 52ZM60.722 40.5653H76.2902V45.3665H60.722V40.5653ZM85.928 52V30.1818H91.695V34.0312H91.9507C92.4052 32.7528 93.1628 31.7443 94.2234 31.0057C95.284 30.267 96.553 29.8977 98.0302 29.8977C99.5264 29.8977 100.8 30.2718 101.851 31.0199C102.902 31.7585 103.603 32.7623 103.954 34.0312H104.181C104.626 32.7812 105.431 31.7822 106.596 31.0341C107.77 30.2765 109.157 29.8977 110.758 29.8977C112.793 29.8977 114.446 30.5464 115.715 31.8438C116.993 33.1316 117.633 34.9593 117.633 37.3267V52H111.596V38.5199C111.596 37.3078 111.274 36.3987 110.63 35.7926C109.986 35.1866 109.181 34.8835 108.215 34.8835C107.116 34.8835 106.259 35.2339 105.644 35.9347C105.028 36.6259 104.721 37.5398 104.721 38.6761V52H98.8541V38.392C98.8541 37.322 98.5463 36.4697 97.9308 35.8352C97.3247 35.2008 96.5245 34.8835 95.5302 34.8835C94.8579 34.8835 94.2518 35.054 93.712 35.3949C93.1817 35.7263 92.7603 36.1951 92.4478 36.8011C92.1353 37.3977 91.9791 38.0985 91.9791 38.9034V52H85.928ZM122.526 52V22.9091H128.577V33.8466H128.762C129.027 33.2595 129.41 32.6629 129.912 32.0568C130.424 31.4413 131.087 30.9299 131.901 30.5227C132.725 30.1061 133.748 29.8977 134.969 29.8977C136.56 29.8977 138.028 30.3144 139.373 31.1477C140.717 31.9716 141.792 33.2169 142.597 34.8835C143.402 36.5407 143.804 38.6193 143.804 41.1193C143.804 43.553 143.411 45.608 142.625 47.2841C141.849 48.9508 140.788 50.215 139.444 51.0767C138.108 51.929 136.612 52.3551 134.955 52.3551C133.781 52.3551 132.782 52.161 131.958 51.7727C131.143 51.3845 130.476 50.8968 129.955 50.3097C129.434 49.7131 129.036 49.1117 128.762 48.5057H128.492V52H122.526ZM128.449 41.0909C128.449 42.3883 128.629 43.5199 128.989 44.4858C129.349 45.4517 129.87 46.2045 130.552 46.7443C131.233 47.2746 132.062 47.5398 133.037 47.5398C134.022 47.5398 134.856 47.2699 135.537 46.7301C136.219 46.1809 136.735 45.4233 137.086 44.4574C137.445 43.482 137.625 42.3598 137.625 41.0909C137.625 39.8314 137.45 38.7235 137.1 37.767C136.749 36.8106 136.233 36.0625 135.552 35.5227C134.87 34.983 134.032 34.7131 133.037 34.7131C132.052 34.7131 131.219 34.9735 130.537 35.4943C129.865 36.0152 129.349 36.7538 128.989 37.7102C128.629 38.6667 128.449 39.7936 128.449 41.0909ZM147.842 52V30.1818H153.893V52H147.842ZM150.882 27.3693C149.982 27.3693 149.21 27.071 148.566 26.4744C147.932 25.8684 147.615 25.1439 147.615 24.3011C147.615 23.4678 147.932 22.7528 148.566 22.1562C149.21 21.5502 149.982 21.2472 150.882 21.2472C151.781 21.2472 152.548 21.5502 153.183 22.1562C153.827 22.7528 154.149 23.4678 154.149 24.3011C154.149 25.1439 153.827 25.8684 153.183 26.4744C152.548 27.071 151.781 27.3693 150.882 27.3693ZM168.684 52.4261C166.439 52.4261 164.508 51.9716 162.888 51.0625C161.278 50.1439 160.038 48.8466 159.167 47.1705C158.295 45.4848 157.86 43.4915 157.86 41.1903C157.86 38.946 158.295 36.9763 159.167 35.2812C160.038 33.5862 161.264 32.2652 162.846 31.3182C164.436 30.3712 166.302 29.8977 168.442 29.8977C169.882 29.8977 171.222 30.1297 172.462 30.5938C173.712 31.0483 174.801 31.7348 175.729 32.6534C176.667 33.572 177.396 34.7273 177.917 36.1193C178.437 37.5019 178.698 39.1212 178.698 40.9773V42.6392H160.275V38.8892H173.002C173.002 38.018 172.812 37.2462 172.434 36.5739C172.055 35.9015 171.529 35.3759 170.857 34.9972C170.194 34.6089 169.422 34.4148 168.542 34.4148C167.623 34.4148 166.809 34.6278 166.098 35.054C165.398 35.4706 164.848 36.0341 164.451 36.7443C164.053 37.4451 163.849 38.2263 163.84 39.0881V42.6534C163.84 43.733 164.039 44.6657 164.436 45.4517C164.844 46.2377 165.417 46.8438 166.155 47.2699C166.894 47.696 167.77 47.9091 168.783 47.9091C169.455 47.9091 170.071 47.8144 170.63 47.625C171.188 47.4356 171.667 47.1515 172.064 46.7727C172.462 46.3939 172.765 45.9299 172.973 45.3807L178.57 45.75C178.286 47.0947 177.704 48.2689 176.823 49.2727C175.952 50.267 174.825 51.0436 173.442 51.6023C172.069 52.1515 170.483 52.4261 168.684 52.4261ZM188.698 39.3864V52H182.647V30.1818H188.414V34.0312H188.669C189.152 32.7623 189.962 31.7585 191.098 31.0199C192.235 30.2718 193.613 29.8977 195.232 29.8977C196.747 29.8977 198.068 30.2292 199.195 30.892C200.322 31.5549 201.198 32.5019 201.823 33.733C202.448 34.9545 202.76 36.4129 202.76 38.108V52H196.709V39.1875C196.719 37.8523 196.378 36.8106 195.686 36.0625C194.995 35.3049 194.043 34.9261 192.831 34.9261C192.017 34.9261 191.297 35.1013 190.672 35.4517C190.057 35.8021 189.574 36.3134 189.223 36.9858C188.883 37.6487 188.707 38.4489 188.698 39.3864ZM219.135 30.1818V34.7273H205.995V30.1818H219.135ZM208.978 24.9545H215.03V45.2955C215.03 45.8542 215.115 46.2898 215.285 46.6023C215.456 46.9053 215.692 47.1184 215.995 47.2415C216.308 47.3646 216.668 47.4261 217.075 47.4261C217.359 47.4261 217.643 47.4025 217.927 47.3551C218.211 47.2983 218.429 47.2557 218.581 47.2273L219.532 51.7301C219.229 51.8248 218.803 51.9337 218.254 52.0568C217.705 52.1894 217.037 52.2699 216.251 52.2983C214.793 52.3551 213.514 52.161 212.416 51.7159C211.327 51.2708 210.479 50.5795 209.873 49.642C209.267 48.7045 208.969 47.5208 208.978 46.0909V24.9545ZM222.622 34.4C222.622 30.64 224.622 27.1733 228.622 24L235.942 28.88C232.635 30.96 230.982 33.16 230.982 35.48C230.982 36.4667 231.315 37.5067 231.982 38.6C232.648 39.6933 233.315 40.7733 233.982 41.84C234.675 42.9067 235.022 43.9067 235.022 44.84C235.022 48.7067 232.355 51.6933 227.022 53.8L225.102 51.2C226.408 50.48 227.315 49.7867 227.822 49.12C228.328 48.4533 228.582 47.72 228.582 46.92C228.582 46.12 228.262 45.2267 227.622 44.24C227.008 43.2267 226.328 42.3067 225.582 41.48C224.862 40.6533 224.182 39.6 223.542 38.32C222.928 37.04 222.622 35.7333 222.622 34.4ZM243.928 52.6L242.208 36.44L238.528 36.96L238.288 32.84L241.808 32.68L241.208 27.08L251.168 25.76L250.368 32.24L254.328 32.04L254.208 34.72L249.968 35.32L247.888 52.24L243.928 52.6ZM273.697 44.64C273.697 47.5467 273.057 49.6667 271.777 51C270.524 52.3067 268.191 52.96 264.777 52.96C261.364 52.96 258.697 52.1867 256.777 50.64C256.377 48.72 256.177 46.8 256.177 44.88C256.177 42.96 256.444 41.16 256.977 39.48C257.537 37.7733 258.231 36.32 259.057 35.12C260.791 32.6667 262.337 31.1067 263.697 30.44C266.257 31.7467 268.511 33.52 270.457 35.76C272.617 38.2133 273.697 41.1733 273.697 44.64ZM269.057 43.56C269.057 41.0267 268.524 38.7067 267.457 36.6C265.244 37.7733 263.417 39.56 261.977 41.96C260.537 44.36 259.817 46.7867 259.817 49.24C260.671 49.4 261.897 49.48 263.497 49.48C265.097 49.48 266.737 49.2 268.417 48.64C268.844 47.0133 269.057 45.32 269.057 43.56ZM291.021 38.84C289.207 38.84 287.834 39.48 286.901 40.76C285.967 42.0133 285.287 44.3333 284.861 47.72L284.301 52.24L280.341 52.6L278.301 32.76L286.861 31.44L286.061 37.84H286.341C288.474 33.2533 291.194 30.8133 294.501 30.52L293.381 39.04C292.394 38.9067 291.607 38.84 291.021 38.84ZM303.97 30.44C310.423 33.0267 313.65 36.24 313.65 40.08C313.65 42.08 313.076 43.5333 311.93 44.44C310.81 45.32 308.716 45.76 305.65 45.76C303.703 45.76 302.103 45.6133 300.85 45.32C300.343 46.5733 300.09 47.88 300.09 49.24C301.29 49.4 302.65 49.48 304.17 49.48C306.943 49.48 309.556 49.04 312.01 48.16L313.21 52.04C311.263 52.6533 309.076 52.96 306.65 52.96C302.33 52.96 299.156 52.1733 297.13 50.6C296.703 48.7067 296.49 46.92 296.49 45.24C296.49 41.88 297.223 38.8533 298.69 36.16C300.183 33.4667 301.943 31.56 303.97 30.44ZM301.65 43.44C301.996 43.4667 302.863 43.48 304.25 43.48C305.663 43.48 307.276 43.2933 309.09 42.92C309.17 42.4133 309.21 41.9067 309.21 41.4C309.21 39.8 308.77 38.2667 307.89 36.8C305.25 38.56 303.17 40.7733 301.65 43.44ZM318.897 31.64L335.137 32L335.657 36.16L322.257 49.4L334.657 47.92L334.897 52L317.657 52.36L317.777 49.92L326.777 35.28L319.017 34.48L318.897 31.64Z" fill="white"/>
</svg>
