<svg width="373" height="71" viewBox="0 0 373 71" fill="none" xmlns="http://www.w3.org/2000/svg">
<path d="M35.2048 65.2045C18.6363 65.2045 5.20481 51.773 5.20481 35.2045C5.20481 18.6359 18.6363 5.20447 35.2048 5.20447C36.9851 5.20447 38.0939 5.36054 38.7412 5.52607C38.623 6.24022 38.3255 7.2487 37.7819 8.67357C37.3141 9.8999 36.7484 11.2243 36.0967 12.75C35.9682 13.0508 35.8363 13.3595 35.7012 13.6768C34.9023 15.5533 34.0252 17.6509 33.2196 19.8846C31.6131 24.3392 30.2048 29.5587 30.2048 35.2045C30.2048 40.8503 31.6131 46.0697 33.2196 50.5243C34.0252 52.758 34.9023 54.8557 35.7012 56.7321C35.8363 57.0494 35.9682 57.3581 36.0967 57.6589C36.7484 59.1847 37.3141 60.509 37.7819 61.7354C38.3255 63.1602 38.623 64.1687 38.7412 64.8829C38.0939 65.0484 36.9851 65.2045 35.2048 65.2045ZM38.7931 4.90744C38.7931 4.90741 38.7934 4.90913 38.7937 4.91268C38.7932 4.90925 38.7931 4.90747 38.7931 4.90744ZM38.7931 65.5015C38.7931 65.5015 38.7932 65.4997 38.7937 65.4963C38.7934 65.4998 38.7931 65.5015 38.7931 65.5015Z" stroke="black" stroke-width="10"/>
<path d="M61.3385 52.2045H54.7476L64.7902 23.1136H72.7164L82.7448 52.2045H76.1539L68.8669 29.7613H68.6396L61.3385 52.2045ZM60.9266 40.7698H76.4948V45.5709H60.9266V40.7698ZM86.1325 52.2045V30.3863H91.8996V34.2357H92.1553C92.6098 32.9573 93.3674 31.9488 94.428 31.2101C95.4886 30.4715 96.7575 30.1022 98.2348 30.1022C99.731 30.1022 101.005 30.4762 102.056 31.2244C103.107 31.963 103.808 32.9668 104.158 34.2357H104.385C104.83 32.9857 105.635 31.9867 106.8 31.2386C107.974 30.481 109.362 30.1022 110.962 30.1022C112.998 30.1022 114.651 30.7509 115.919 32.0482C117.198 33.3361 117.837 35.1637 117.837 37.5312V52.2045H111.8V38.7244C111.8 37.5122 111.478 36.6031 110.834 35.9971C110.19 35.391 109.385 35.088 108.419 35.088C107.321 35.088 106.464 35.4384 105.848 36.1391C105.233 36.8304 104.925 37.7442 104.925 38.8806V52.2045H99.0587V38.5965C99.0587 37.5264 98.7509 36.6742 98.1354 36.0397C97.5293 35.4052 96.7291 35.088 95.7348 35.088C95.0625 35.088 94.4564 35.2584 93.9166 35.5994C93.3863 35.9308 92.9649 36.3995 92.6524 37.0056C92.3399 37.6022 92.1837 38.303 92.1837 39.1079V52.2045H86.1325ZM122.731 52.2045V23.1136H128.782V34.0511H128.966C129.232 33.4639 129.615 32.8673 130.117 32.2613C130.628 31.6458 131.291 31.1344 132.106 30.7272C132.929 30.3105 133.952 30.1022 135.174 30.1022C136.765 30.1022 138.232 30.5189 139.577 31.3522C140.922 32.1761 141.997 33.4213 142.802 35.088C143.607 36.7452 144.009 38.8238 144.009 41.3238C144.009 43.7575 143.616 45.8124 142.83 47.4886C142.053 49.1552 140.993 50.4194 139.648 51.2812C138.313 52.1334 136.817 52.5596 135.16 52.5596C133.985 52.5596 132.986 52.3655 132.162 51.9772C131.348 51.5889 130.68 51.1012 130.16 50.5141C129.639 49.9175 129.241 49.3162 128.966 48.7101H128.696V52.2045H122.731ZM128.654 41.2954C128.654 42.5927 128.834 43.7244 129.194 44.6903C129.553 45.6562 130.074 46.409 130.756 46.9488C131.438 47.4791 132.267 47.7442 133.242 47.7442C134.227 47.7442 135.06 47.4744 135.742 46.9346C136.424 46.3853 136.94 45.6278 137.29 44.6619C137.65 43.6865 137.83 42.5643 137.83 41.2954C137.83 40.0359 137.655 38.928 137.304 37.9715C136.954 37.0151 136.438 36.267 135.756 35.7272C135.074 35.1874 134.236 34.9175 133.242 34.9175C132.257 34.9175 131.424 35.178 130.742 35.6988C130.07 36.2196 129.553 36.9583 129.194 37.9147C128.834 38.8711 128.654 39.998 128.654 41.2954ZM148.047 52.2045V30.3863H154.098V52.2045H148.047ZM151.086 27.5738C150.187 27.5738 149.415 27.2755 148.771 26.6789C148.137 26.0728 147.819 25.3484 147.819 24.5056C147.819 23.6723 148.137 22.9573 148.771 22.3607C149.415 21.7547 150.187 21.4516 151.086 21.4516C151.986 21.4516 152.753 21.7547 153.388 22.3607C154.031 22.9573 154.353 23.6723 154.353 24.5056C154.353 25.3484 154.031 26.0728 153.388 26.6789C152.753 27.2755 151.986 27.5738 151.086 27.5738ZM168.888 52.6306C166.644 52.6306 164.712 52.1761 163.093 51.267C161.483 50.3484 160.242 49.0511 159.371 47.3749C158.5 45.6893 158.064 43.6959 158.064 41.3948C158.064 39.1505 158.5 37.1808 159.371 35.4857C160.242 33.7906 161.469 32.4696 163.05 31.5226C164.641 30.5757 166.507 30.1022 168.647 30.1022C170.086 30.1022 171.426 30.3342 172.667 30.7982C173.917 31.2528 175.006 31.9393 175.934 32.8579C176.871 33.7764 177.6 34.9317 178.121 36.3238C178.642 37.7064 178.902 39.3257 178.902 41.1817V42.8437H160.479V39.0937H173.206C173.206 38.2225 173.017 37.4507 172.638 36.7783C172.259 36.106 171.734 35.5804 171.062 35.2016C170.399 34.8134 169.627 34.6192 168.746 34.6192C167.828 34.6192 167.013 34.8323 166.303 35.2584C165.602 35.6751 165.053 36.2386 164.655 36.9488C164.258 37.6495 164.054 38.4308 164.044 39.2925V42.8579C164.044 43.9374 164.243 44.8702 164.641 45.6562C165.048 46.4422 165.621 47.0482 166.36 47.4744C167.098 47.9005 167.974 48.1136 168.988 48.1136C169.66 48.1136 170.276 48.0189 170.834 47.8295C171.393 47.6401 171.871 47.356 172.269 46.9772C172.667 46.5984 172.97 46.1344 173.178 45.5851L178.775 45.9545C178.491 47.2992 177.908 48.4734 177.027 49.4772C176.156 50.4715 175.029 51.248 173.647 51.8067C172.274 52.356 170.687 52.6306 168.888 52.6306ZM188.902 39.5908V52.2045H182.851V30.3863H188.618V34.2357H188.874C189.357 32.9668 190.167 31.963 191.303 31.2244C192.439 30.4762 193.817 30.1022 195.437 30.1022C196.952 30.1022 198.273 30.4336 199.4 31.0965C200.526 31.7594 201.402 32.7064 202.027 33.9374C202.652 35.159 202.965 36.6173 202.965 38.3124V52.2045H196.914V39.392C196.923 38.0567 196.582 37.0151 195.891 36.267C195.2 35.5094 194.248 35.1306 193.036 35.1306C192.222 35.1306 191.502 35.3058 190.877 35.6562C190.261 36.0066 189.778 36.5179 189.428 37.1903C189.087 37.8531 188.912 38.6533 188.902 39.5908ZM219.339 30.3863V34.9317H206.2V30.3863H219.339ZM209.183 25.159H215.234V45.4999C215.234 46.0586 215.319 46.4942 215.49 46.8067C215.66 47.1098 215.897 47.3228 216.2 47.4459C216.513 47.5691 216.872 47.6306 217.28 47.6306C217.564 47.6306 217.848 47.6069 218.132 47.5596C218.416 47.5028 218.634 47.4601 218.785 47.4317L219.737 51.9346C219.434 52.0293 219.008 52.1382 218.459 52.2613C217.909 52.3939 217.242 52.4744 216.456 52.5028C214.997 52.5596 213.719 52.3655 212.62 51.9204C211.531 51.4753 210.684 50.784 210.078 49.8465C209.472 48.909 209.174 47.7253 209.183 46.2954V25.159ZM222.826 34.6045C222.826 30.8445 224.826 27.3778 228.826 24.2045L236.146 29.0845C232.84 31.1645 231.186 33.3645 231.186 35.6845C231.186 36.6711 231.52 37.7111 232.186 38.8045C232.853 39.8978 233.52 40.9778 234.186 42.0445C234.88 43.1111 235.226 44.1111 235.226 45.0445C235.226 48.9111 232.56 51.8978 227.226 54.0045L225.306 51.4045C226.613 50.6845 227.52 49.9911 228.026 49.3245C228.533 48.6578 228.786 47.9245 228.786 47.1245C228.786 46.3245 228.466 45.4311 227.826 44.4445C227.213 43.4311 226.533 42.5111 225.786 41.6845C225.066 40.8578 224.386 39.8045 223.746 38.5245C223.133 37.2445 222.826 35.9378 222.826 34.6045ZM244.133 52.8045L242.413 36.6445L238.733 37.1645L238.493 33.0445L242.013 32.8845L241.413 27.2845L251.373 25.9645L250.573 32.4445L254.533 32.2445L254.413 34.9245L250.173 35.5245L248.093 52.4445L244.133 52.8045ZM273.902 44.8445C273.902 47.7511 273.262 49.8711 271.982 51.2045C270.729 52.5111 268.395 53.1645 264.982 53.1645C261.569 53.1645 258.902 52.3911 256.982 50.8445C256.582 48.9245 256.382 47.0045 256.382 45.0845C256.382 43.1645 256.649 41.3645 257.182 39.6845C257.742 37.9778 258.435 36.5245 259.262 35.3245C260.995 32.8711 262.542 31.3111 263.902 30.6445C266.462 31.9511 268.715 33.7245 270.662 35.9645C272.822 38.4178 273.902 41.3778 273.902 44.8445ZM269.262 43.7645C269.262 41.2311 268.729 38.9111 267.662 36.8045C265.449 37.9778 263.622 39.7645 262.182 42.1645C260.742 44.5645 260.022 46.9911 260.022 49.4445C260.875 49.6045 262.102 49.6845 263.702 49.6845C265.302 49.6845 266.942 49.4045 268.622 48.8445C269.049 47.2178 269.262 45.5245 269.262 43.7645ZM291.225 39.0445C289.412 39.0445 288.039 39.6845 287.105 40.9645C286.172 42.2178 285.492 44.5378 285.065 47.9245L284.505 52.4445L280.545 52.8045L278.505 32.9645L287.065 31.6445L286.265 38.0445H286.545C288.679 33.4578 291.399 31.0178 294.705 30.7245L293.585 39.2445C292.599 39.1111 291.812 39.0445 291.225 39.0445ZM304.174 30.6445C310.628 33.2311 313.854 36.4445 313.854 40.2845C313.854 42.2845 313.281 43.7378 312.134 44.6445C311.014 45.5245 308.921 45.9645 305.854 45.9645C303.908 45.9645 302.308 45.8178 301.054 45.5245C300.548 46.7778 300.294 48.0845 300.294 49.4445C301.494 49.6045 302.854 49.6845 304.374 49.6845C307.148 49.6845 309.761 49.2445 312.214 48.3645L313.414 52.2445C311.468 52.8578 309.281 53.1645 306.854 53.1645C302.534 53.1645 299.361 52.3778 297.334 50.8045C296.908 48.9111 296.694 47.1245 296.694 45.4445C296.694 42.0845 297.428 39.0578 298.894 36.3645C300.388 33.6711 302.148 31.7645 304.174 30.6445ZM301.854 43.6445C302.201 43.6711 303.068 43.6845 304.454 43.6845C305.868 43.6845 307.481 43.4978 309.294 43.1245C309.374 42.6178 309.414 42.1111 309.414 41.6045C309.414 40.0045 308.974 38.4711 308.094 37.0045C305.454 38.7645 303.374 40.9778 301.854 43.6445ZM319.102 31.8445L335.342 32.2045L335.862 36.3645L322.462 49.6045L334.862 48.1245L335.102 52.2045L317.862 52.5645L317.982 50.1245L326.982 35.4845L319.222 34.6845L319.102 31.8445Z" fill="black"/>
</svg>
